<?xml version="1.0" standalone="no"?>
<svg xmlns:xlink="http://www.w3.org/1999/xlink" id="wave" style="transform:rotate(0deg); transition: 0.3s" viewBox="0 0 1440 490" version="1.1" xmlns="http://www.w3.org/2000/svg"><defs><linearGradient id="sw-gradient-0" x1="0" x2="0" y1="1" y2="0"><stop stop-color="rgba(12, 120, 176, 1)" offset="0%"/><stop stop-color="rgba(93.636, 225.772, 203.836, 1)" offset="100%"/></linearGradient></defs><path style="transform:translate(0, 0px); opacity:1" fill="url(#sw-gradient-0)" d="M0,0L30,57.2C60,114,120,229,180,253.2C240,278,300,212,360,228.7C420,245,480,343,540,343C600,343,660,245,720,212.3C780,180,840,212,900,261.3C960,310,1020,376,1080,408.3C1140,441,1200,441,1260,392C1320,343,1380,245,1440,179.7C1500,114,1560,82,1620,81.7C1680,82,1740,114,1800,106.2C1860,98,1920,49,1980,57.2C2040,65,2100,131,2160,187.8C2220,245,2280,294,2340,326.7C2400,359,2460,376,2520,359.3C2580,343,2640,294,2700,261.3C2760,229,2820,212,2880,187.8C2940,163,3000,131,3060,98C3120,65,3180,33,3240,24.5C3300,16,3360,33,3420,32.7C3480,33,3540,16,3600,32.7C3660,49,3720,98,3780,130.7C3840,163,3900,180,3960,187.8C4020,196,4080,196,4140,179.7C4200,163,4260,131,4290,114.3L4320,98L4320,490L4290,490C4260,490,4200,490,4140,490C4080,490,4020,490,3960,490C3900,490,3840,490,3780,490C3720,490,3660,490,3600,490C3540,490,3480,490,3420,490C3360,490,3300,490,3240,490C3180,490,3120,490,3060,490C3000,490,2940,490,2880,490C2820,490,2760,490,2700,490C2640,490,2580,490,2520,490C2460,490,2400,490,2340,490C2280,490,2220,490,2160,490C2100,490,2040,490,1980,490C1920,490,1860,490,1800,490C1740,490,1680,490,1620,490C1560,490,1500,490,1440,490C1380,490,1320,490,1260,490C1200,490,1140,490,1080,490C1020,490,960,490,900,490C840,490,780,490,720,490C660,490,600,490,540,490C480,490,420,490,360,490C300,490,240,490,180,490C120,490,60,490,30,490L0,490Z"/></svg>